<mxfile host="app.diagrams.net" agent="Mozilla/5.0 (Windows NT 10.0; Win64; x64) AppleWebKit/537.36 (KHTML, like Gecko) Chrome/135.0.0.0 Safari/537.36" version="26.2.13">
  <diagram name="Page-1" id="BbA1T3SjbCqhhfl8h1EJ">
    <mxGraphModel dx="1428" dy="751" grid="1" gridSize="10" guides="1" tooltips="1" connect="1" arrows="1" fold="1" page="1" pageScale="1" pageWidth="450" pageHeight="500" background="none" math="0" shadow="0">
      <root>
        <mxCell id="0" />
        <mxCell id="1" parent="0" />
        <mxCell id="ur2AvoEmHNOuIayLEwYA-41" value="" style="rounded=0;whiteSpace=wrap;html=1;" parent="1" vertex="1">
          <mxGeometry x="80" width="760" height="440" as="geometry" />
        </mxCell>
        <mxCell id="ur2AvoEmHNOuIayLEwYA-5" value="" style="ellipse;whiteSpace=wrap;html=1;" parent="1" vertex="1">
          <mxGeometry x="230" y="130" width="120" height="80" as="geometry" />
        </mxCell>
        <mxCell id="ur2AvoEmHNOuIayLEwYA-6" value="&lt;font style=&quot;font-size: 14px;&quot;&gt;Difference Average Past Wins&lt;/font&gt;" style="text;html=1;align=center;verticalAlign=middle;whiteSpace=wrap;rounded=0;" parent="1" vertex="1">
          <mxGeometry x="240" y="155" width="100" height="30" as="geometry" />
        </mxCell>
        <mxCell id="ur2AvoEmHNOuIayLEwYA-11" value="" style="ellipse;whiteSpace=wrap;html=1;" parent="1" vertex="1">
          <mxGeometry x="550" y="135" width="120" height="80" as="geometry" />
        </mxCell>
        <mxCell id="ur2AvoEmHNOuIayLEwYA-12" value="&lt;span style=&quot;font-size: 14px;&quot;&gt;Difference Current Strength&lt;/span&gt;" style="text;html=1;align=center;verticalAlign=middle;whiteSpace=wrap;rounded=0;" parent="1" vertex="1">
          <mxGeometry x="560" y="160" width="100" height="30" as="geometry" />
        </mxCell>
        <mxCell id="ur2AvoEmHNOuIayLEwYA-15" value="" style="ellipse;whiteSpace=wrap;html=1;" parent="1" vertex="1">
          <mxGeometry x="390" y="245" width="120" height="80" as="geometry" />
        </mxCell>
        <mxCell id="ur2AvoEmHNOuIayLEwYA-16" value="&lt;span style=&quot;font-size: 14px;&quot;&gt;Game Outcome&lt;/span&gt;" style="text;html=1;align=center;verticalAlign=middle;whiteSpace=wrap;rounded=0;" parent="1" vertex="1">
          <mxGeometry x="400" y="270" width="100" height="30" as="geometry" />
        </mxCell>
        <mxCell id="ur2AvoEmHNOuIayLEwYA-21" value="" style="endArrow=classic;html=1;rounded=0;exitX=0.5;exitY=1;exitDx=0;exitDy=0;entryX=0.326;entryY=0.06;entryDx=0;entryDy=0;entryPerimeter=0;" parent="1" source="ur2AvoEmHNOuIayLEwYA-5" target="ur2AvoEmHNOuIayLEwYA-15" edge="1">
          <mxGeometry width="50" height="50" relative="1" as="geometry">
            <mxPoint x="450" y="305" as="sourcePoint" />
            <mxPoint x="500" y="255" as="targetPoint" />
          </mxGeometry>
        </mxCell>
        <mxCell id="ur2AvoEmHNOuIayLEwYA-22" value="" style="endArrow=classic;html=1;rounded=0;exitX=0.5;exitY=1;exitDx=0;exitDy=0;entryX=0.688;entryY=0.06;entryDx=0;entryDy=0;entryPerimeter=0;" parent="1" source="ur2AvoEmHNOuIayLEwYA-11" target="ur2AvoEmHNOuIayLEwYA-15" edge="1">
          <mxGeometry width="50" height="50" relative="1" as="geometry">
            <mxPoint x="450" y="305" as="sourcePoint" />
            <mxPoint x="500" y="255" as="targetPoint" />
          </mxGeometry>
        </mxCell>
        <mxCell id="ur2AvoEmHNOuIayLEwYA-36" value="" style="endArrow=classic;html=1;rounded=0;entryX=1;entryY=1;entryDx=0;entryDy=0;exitX=0.217;exitY=0.138;exitDx=0;exitDy=0;exitPerimeter=0;" parent="1" source="GLYk3gXD7eMRItZPFPhw-4" target="ur2AvoEmHNOuIayLEwYA-15" edge="1">
          <mxGeometry width="50" height="50" relative="1" as="geometry">
            <mxPoint x="620" y="505" as="sourcePoint" />
            <mxPoint x="490" y="405" as="targetPoint" />
          </mxGeometry>
        </mxCell>
        <mxCell id="ur2AvoEmHNOuIayLEwYA-38" value="" style="endArrow=classic;html=1;rounded=0;entryX=0;entryY=1;entryDx=0;entryDy=0;exitX=1;exitY=0;exitDx=0;exitDy=0;" parent="1" target="ur2AvoEmHNOuIayLEwYA-15" edge="1" source="GLYk3gXD7eMRItZPFPhw-2">
          <mxGeometry width="50" height="50" relative="1" as="geometry">
            <mxPoint x="360" y="435" as="sourcePoint" />
            <mxPoint x="420" y="405" as="targetPoint" />
          </mxGeometry>
        </mxCell>
        <mxCell id="t-DmeBNSrvYt_Hhn1wCg-1" value="Parameters" style="swimlane;fontStyle=0;childLayout=stackLayout;horizontal=1;startSize=30;horizontalStack=0;resizeParent=1;resizeParentMax=0;resizeLast=0;collapsible=1;marginBottom=0;whiteSpace=wrap;html=1;" parent="1" vertex="1">
          <mxGeometry x="205" y="20" width="170" height="90" as="geometry">
            <mxRectangle x="260" y="30" width="100" height="30" as="alternateBounds" />
          </mxGeometry>
        </mxCell>
        <mxCell id="t-DmeBNSrvYt_Hhn1wCg-2" value="Wins Last Season" style="text;strokeColor=none;fillColor=none;align=left;verticalAlign=middle;spacingLeft=4;spacingRight=4;overflow=hidden;points=[[0,0.5],[1,0.5]];portConstraint=eastwest;rotatable=0;whiteSpace=wrap;html=1;" parent="t-DmeBNSrvYt_Hhn1wCg-1" vertex="1">
          <mxGeometry y="30" width="170" height="20" as="geometry" />
        </mxCell>
        <mxCell id="t-DmeBNSrvYt_Hhn1wCg-3" value="Wins Second Last Season" style="text;strokeColor=none;fillColor=none;align=left;verticalAlign=middle;spacingLeft=4;spacingRight=4;overflow=hidden;points=[[0,0.5],[1,0.5]];portConstraint=eastwest;rotatable=0;whiteSpace=wrap;html=1;" parent="t-DmeBNSrvYt_Hhn1wCg-1" vertex="1">
          <mxGeometry y="50" width="170" height="20" as="geometry" />
        </mxCell>
        <mxCell id="t-DmeBNSrvYt_Hhn1wCg-4" value="Wins Third Last Season" style="text;strokeColor=none;fillColor=none;align=left;verticalAlign=middle;spacingLeft=4;spacingRight=4;overflow=hidden;points=[[0,0.5],[1,0.5]];portConstraint=eastwest;rotatable=0;whiteSpace=wrap;html=1;" parent="t-DmeBNSrvYt_Hhn1wCg-1" vertex="1">
          <mxGeometry y="70" width="170" height="20" as="geometry" />
        </mxCell>
        <mxCell id="t-DmeBNSrvYt_Hhn1wCg-5" value="Parameters" style="swimlane;fontStyle=0;childLayout=stackLayout;horizontal=1;startSize=30;horizontalStack=0;resizeParent=1;resizeParentMax=0;resizeLast=0;collapsible=1;marginBottom=0;whiteSpace=wrap;html=1;" parent="1" vertex="1">
          <mxGeometry x="525" y="30" width="170" height="70" as="geometry">
            <mxRectangle x="260" y="30" width="100" height="30" as="alternateBounds" />
          </mxGeometry>
        </mxCell>
        <mxCell id="t-DmeBNSrvYt_Hhn1wCg-6" value="Current Win %" style="text;strokeColor=none;fillColor=none;align=left;verticalAlign=middle;spacingLeft=4;spacingRight=4;overflow=hidden;points=[[0,0.5],[1,0.5]];portConstraint=eastwest;rotatable=0;whiteSpace=wrap;html=1;" parent="t-DmeBNSrvYt_Hhn1wCg-5" vertex="1">
          <mxGeometry y="30" width="170" height="20" as="geometry" />
        </mxCell>
        <mxCell id="t-DmeBNSrvYt_Hhn1wCg-7" value="Wins Against (Head-to-Head)" style="text;strokeColor=none;fillColor=none;align=left;verticalAlign=middle;spacingLeft=4;spacingRight=4;overflow=hidden;points=[[0,0.5],[1,0.5]];portConstraint=eastwest;rotatable=0;whiteSpace=wrap;html=1;" parent="t-DmeBNSrvYt_Hhn1wCg-5" vertex="1">
          <mxGeometry y="50" width="170" height="20" as="geometry" />
        </mxCell>
        <mxCell id="t-DmeBNSrvYt_Hhn1wCg-9" value="" style="endArrow=classic;html=1;rounded=0;exitX=0.5;exitY=0;exitDx=0;exitDy=0;entryX=0.494;entryY=0.95;entryDx=0;entryDy=0;entryPerimeter=0;" parent="1" source="ur2AvoEmHNOuIayLEwYA-5" target="t-DmeBNSrvYt_Hhn1wCg-4" edge="1">
          <mxGeometry width="50" height="50" relative="1" as="geometry">
            <mxPoint x="420" y="270" as="sourcePoint" />
            <mxPoint x="470" y="220" as="targetPoint" />
          </mxGeometry>
        </mxCell>
        <mxCell id="t-DmeBNSrvYt_Hhn1wCg-10" value="" style="endArrow=classic;html=1;rounded=0;exitX=0.5;exitY=0;exitDx=0;exitDy=0;entryX=0.501;entryY=1.02;entryDx=0;entryDy=0;entryPerimeter=0;" parent="1" source="ur2AvoEmHNOuIayLEwYA-11" target="t-DmeBNSrvYt_Hhn1wCg-7" edge="1">
          <mxGeometry width="50" height="50" relative="1" as="geometry">
            <mxPoint x="420" y="270" as="sourcePoint" />
            <mxPoint x="590" y="110" as="targetPoint" />
          </mxGeometry>
        </mxCell>
        <mxCell id="GLYk3gXD7eMRItZPFPhw-2" value="" style="ellipse;whiteSpace=wrap;html=1;" vertex="1" parent="1">
          <mxGeometry x="230" y="340" width="120" height="80" as="geometry" />
        </mxCell>
        <mxCell id="GLYk3gXD7eMRItZPFPhw-3" value="&lt;font style=&quot;font-size: 14px;&quot;&gt;Difference Streak&lt;/font&gt;" style="text;html=1;align=center;verticalAlign=middle;whiteSpace=wrap;rounded=0;" vertex="1" parent="1">
          <mxGeometry x="240" y="365" width="100" height="30" as="geometry" />
        </mxCell>
        <mxCell id="GLYk3gXD7eMRItZPFPhw-4" value="" style="ellipse;whiteSpace=wrap;html=1;" vertex="1" parent="1">
          <mxGeometry x="550" y="340" width="120" height="80" as="geometry" />
        </mxCell>
        <mxCell id="GLYk3gXD7eMRItZPFPhw-5" value="&lt;font style=&quot;font-size: 14px;&quot;&gt;Difference Fatigue&lt;/font&gt;" style="text;html=1;align=center;verticalAlign=middle;whiteSpace=wrap;rounded=0;" vertex="1" parent="1">
          <mxGeometry x="560" y="365" width="100" height="30" as="geometry" />
        </mxCell>
      </root>
    </mxGraphModel>
  </diagram>
</mxfile>
